<svg width="238" height="126" viewBox="0 0 238 126" fill="none" xmlns="http://www.w3.org/2000/svg">
<rect x="72.7256" y="37.5859" width="39.0321" height="21.4623" stroke="white" stroke-opacity="0.4" stroke-width="0.5"/>
<rect x="0.25" y="77.1182" width="39.0321" height="21.4623" stroke="white" stroke-opacity="0.21" stroke-width="0.5"/>
<rect x="145.201" y="77.1182" width="39.0321" height="21.4623" stroke="white" stroke-opacity="0.56" stroke-width="0.5"/>
<rect x="0.25" y="0.25" width="39.0321" height="21.4623" stroke="white" stroke-opacity="0.21" stroke-width="0.5"/>
<rect x="145.201" y="0.25" width="39.0321" height="21.4623" stroke="white" stroke-opacity="0.56" stroke-width="0.5"/>
<rect x="72.7256" y="66.1367" width="39.0321" height="21.4623" stroke="white" stroke-opacity="0.4" stroke-width="0.5"/>
<rect x="0.25" y="103.473" width="39.0321" height="21.4623" stroke="white" stroke-opacity="0.21" stroke-width="0.5"/>
<rect x="145.201" y="103.473" width="39.0321" height="21.4623" stroke="white" stroke-opacity="0.56" stroke-width="0.5"/>
<rect x="0.25" y="26.6045" width="39.0321" height="21.4623" stroke="white" stroke-opacity="0.21" stroke-width="0.5"/>
<rect x="145.201" y="26.6045" width="39.0321" height="21.4623" stroke="white" stroke-opacity="0.56" stroke-width="0.5"/>
<rect x="125.435" y="37.5859" width="39.0321" height="21.4623" stroke="white" stroke-opacity="0.4" stroke-width="0.5"/>
<rect x="52.959" y="77.1182" width="39.0321" height="21.4623" stroke="white" stroke-opacity="0.21" stroke-width="0.5"/>
<rect x="197.91" y="77.1182" width="39.0321" height="21.4623" stroke="white" stroke-opacity="0.56" stroke-width="0.5"/>
<rect x="52.959" y="0.25" width="39.0321" height="21.4623" stroke="white" stroke-opacity="0.21" stroke-width="0.5"/>
<rect x="197.91" y="0.25" width="39.0321" height="21.4623" stroke="white" stroke-opacity="0.56" stroke-width="0.5"/>
<rect x="125.435" y="66.1367" width="39.0321" height="21.4623" stroke="white" stroke-opacity="0.4" stroke-width="0.5"/>
<rect x="52.959" y="103.473" width="39.0321" height="21.4623" stroke="white" stroke-opacity="0.21" stroke-width="0.5"/>
<rect x="197.91" y="103.473" width="39.0321" height="21.4623" stroke="white" stroke-opacity="0.56" stroke-width="0.5"/>
<rect x="52.959" y="26.6045" width="39.0321" height="21.4623" stroke="white" stroke-opacity="0.21" stroke-width="0.5"/>
<rect x="197.91" y="26.6045" width="39.0321" height="21.4623" stroke="white" stroke-opacity="0.56" stroke-width="0.5"/>
<rect x="99.0801" y="50.7637" width="39.0321" height="21.4623" stroke="white" stroke-opacity="0.4" stroke-width="0.5"/>
<rect x="26.6045" y="88.0986" width="39.0321" height="21.4623" stroke="white" stroke-opacity="0.21" stroke-width="0.5"/>
<rect x="171.556" y="88.0986" width="39.0321" height="21.4623" stroke="white" stroke-opacity="0.56" stroke-width="0.5"/>
<rect x="26.6045" y="13.4277" width="39.0321" height="21.4623" stroke="white" stroke-opacity="0.21" stroke-width="0.5"/>
<rect x="171.556" y="13.4277" width="39.0321" height="21.4623" stroke="white" stroke-opacity="0.56" stroke-width="0.5"/>
</svg>
