<svg width="14" height="14" viewBox="0 0 14 14" fill="none" xmlns="http://www.w3.org/2000/svg">
<path d="M3.66124 7.53809C3.42333 7.53809 3.23047 7.34521 3.23047 7.10732V6.89193C3.23047 6.65404 3.42333 6.46116 3.66124 6.46116H10.3382C10.5761 6.46116 10.7689 6.65404 10.7689 6.89193V7.10732C10.7689 7.34521 10.5761 7.53809 10.3382 7.53809H3.66124Z" fill="#707070"/>
<path fill-rule="evenodd" clip-rule="evenodd" d="M7 14C3.13401 14 0 10.866 0 7C0 3.13401 3.13401 0 7 0C10.866 0 14 3.13401 14 7C14 10.866 10.866 14 7 14ZM1.07692 7C1.07692 10.2713 3.72927 12.9231 7 12.9231C10.2707 12.9231 12.9231 10.2713 12.9231 7C12.9231 3.72874 10.2707 1.07692 7 1.07692C3.72927 1.07692 1.07692 3.72874 1.07692 7Z" fill="#707070"/>
</svg>
