<svg width="22" height="22" viewBox="0 0 22 22" fill="none" xmlns="http://www.w3.org/2000/svg">
<path d="M2.2761 14.4823C1.31122 12.1528 1.31117 9.58704 2.2761 7.25757C3.08679 5.30045 4.49712 3.70726 6.30871 2.67562V6.56967H7.86623V0.651367H1.94788V2.20888H4.21952C0.429562 5.17668 -1.09286 10.419 0.837112 15.0784C1.57262 16.854 2.76168 18.4093 4.27579 19.5762C5.7437 20.7074 7.48807 21.4556 9.32017 21.7399L9.55904 20.2008C6.27045 19.6905 3.54792 17.5527 2.2761 14.4823Z" fill="black"/>
<path d="M21.1565 15.0784C22.2806 12.3645 22.2806 9.37536 21.1565 6.66154C20.421 4.88587 19.2319 3.33059 17.7178 2.1638C16.2499 1.03253 14.5055 0.284298 12.6734 0L12.4346 1.53914C15.7231 2.04943 18.4456 4.18717 19.7175 7.25761C20.6823 9.58708 20.6823 12.1529 19.7175 14.4823C18.9068 16.4395 17.4964 18.0327 15.6849 19.0643V15.1703H14.1274V21.0885H20.0457V19.531H17.7808C19.258 18.3776 20.4198 16.8569 21.1565 15.0784Z" fill="black"/>
<path d="M9.69 15.09C9.21667 15.09 8.86333 14.9567 8.63 14.69C8.39667 14.4167 8.28 14.06 8.28 13.62V10.7H7.35C7.35 10.4733 7.4 10.3 7.5 10.18C7.6 10.06 7.73667 10 7.91 10H8.29V9.05C8.29 8.83 8.36 8.67 8.5 8.57C8.64667 8.46333 8.86333 8.41 9.15 8.41V10H10.48C10.48 10.4667 10.27 10.7 9.85 10.7H9.16V13.59C9.16 13.8567 9.20667 14.0467 9.3 14.16C9.4 14.2667 9.57667 14.32 9.83 14.32C10.0633 14.32 10.2833 14.26 10.49 14.14C10.5767 14.2267 10.62 14.3433 10.62 14.49C10.62 14.65 10.5367 14.79 10.37 14.91C10.2033 15.03 9.97667 15.09 9.69 15.09ZM13.3207 15.09C12.914 15.09 12.544 15.0133 12.2107 14.86C11.884 14.7067 11.6274 14.5 11.4407 14.24C11.2607 13.9733 11.1707 13.6767 11.1707 13.35V11.71C11.1707 11.3767 11.2607 11.0733 11.4407 10.8C11.6274 10.5267 11.884 10.31 12.2107 10.15C12.5374 9.99 12.9074 9.91 13.3207 9.91C13.734 9.91 14.104 9.99 14.4307 10.15C14.764 10.31 15.0207 10.5267 15.2007 10.8C15.3874 11.0733 15.4807 11.3767 15.4807 11.71V13.35C15.4807 13.6767 15.3874 13.9733 15.2007 14.24C15.014 14.5 14.7574 14.7067 14.4307 14.86C14.104 15.0133 13.734 15.09 13.3207 15.09ZM13.3207 14.34C13.7207 14.34 14.0374 14.2467 14.2707 14.06C14.5107 13.8667 14.6307 13.6167 14.6307 13.31V11.74C14.6307 11.42 14.5107 11.16 14.2707 10.96C14.0374 10.76 13.7207 10.66 13.3207 10.66C12.9274 10.66 12.6107 10.76 12.3707 10.96C12.1307 11.16 12.0107 11.42 12.0107 11.74V13.31C12.0107 13.6167 12.1274 13.8667 12.3607 14.06C12.6007 14.2467 12.9207 14.34 13.3207 14.34Z" fill="black"/>
</svg>
